<?xml version="1.0" encoding="utf-8"?>
<!-- Generator: Adobe Illustrator 16.2.0, SVG Export Plug-In . SVG Version: 6.00 Build 0)  -->
<!DOCTYPE svg PUBLIC "-//W3C//DTD SVG 1.1//EN" "http://www.w3.org/Graphics/SVG/1.1/DTD/svg11.dtd">
<svg version="1.1" id="Слой_1" xmlns="http://www.w3.org/2000/svg" xmlns:xlink="http://www.w3.org/1999/xlink" x="0px" y="0px"
	 width="20px" height="20px" viewBox="0 0 20 20" enable-background="new 0 0 20 20" xml:space="preserve">
<g>
	<path fill="#B7BFC8" d="M18.814,14.718c0,0.22-0.045,0.506-0.133,0.857c-0.088,0.353-0.176,0.631-0.264,0.836
		c-0.161,0.411-0.66,0.851-1.496,1.32c-0.763,0.411-1.518,0.616-2.266,0.616c-0.235,0-0.455-0.015-0.66-0.044
		c-0.206-0.03-0.44-0.081-0.704-0.154s-0.455-0.132-0.572-0.176l-1.298-0.462c-0.792-0.294-1.503-0.639-2.134-1.034
		c-1.056-0.646-2.142-1.525-3.256-2.641c-1.115-1.114-1.995-2.199-2.64-3.256C2.996,9.951,2.658,9.239,2.38,8.447L2.16,7.832
		C2.042,7.494,1.955,7.267,1.896,7.149C1.837,7.032,1.778,6.841,1.72,6.577L1.566,5.874C1.522,5.668,1.507,5.456,1.522,5.235
		c0-0.762,0.212-1.525,0.638-2.288c0.454-0.821,0.887-1.32,1.298-1.496c0.205-0.088,0.484-0.176,0.836-0.264
		c0.352-0.088,0.638-0.132,0.858-0.132c0.117,0,0.206,0.015,0.264,0.044c0.146,0.044,0.366,0.36,0.66,0.946
		c0.088,0.147,0.205,0.367,0.352,0.66c0.146,0.293,0.293,0.55,0.44,0.77c0.146,0.22,0.271,0.44,0.374,0.66
		c0.029,0.03,0.102,0.132,0.22,0.308c0.117,0.176,0.205,0.323,0.264,0.44c0.059,0.118,0.088,0.235,0.088,0.352
		c0,0.162-0.118,0.367-0.352,0.616c-0.235,0.25-0.492,0.469-0.77,0.66c-0.279,0.191-0.528,0.411-0.748,0.66
		c-0.22,0.25-0.337,0.433-0.352,0.55c0,0.074,0.022,0.169,0.066,0.286L5.746,8.25C5.76,8.293,5.819,8.396,5.922,8.557
		c0.103,0.162,0.154,0.235,0.154,0.22c0.616,1.13,1.327,2.098,2.134,2.904s1.767,1.518,2.882,2.134c0.015,0,0.088,0.044,0.221,0.132
		c0.131,0.088,0.234,0.146,0.308,0.176l0.242,0.11c0.088,0.044,0.183,0.059,0.286,0.044c0.146,0,0.329-0.11,0.55-0.33
		c0.22-0.22,0.439-0.477,0.66-0.77c0.22-0.294,0.447-0.551,0.682-0.771s0.44-0.337,0.616-0.352c0.103,0,0.212,0.029,0.33,0.088
		c0.117,0.059,0.264,0.146,0.439,0.264c0.176,0.118,0.278,0.19,0.309,0.22l1.43,0.814c0.278,0.161,0.506,0.286,0.682,0.374
		c0.572,0.278,0.88,0.491,0.924,0.638C18.799,14.512,18.814,14.601,18.814,14.718z"/>
</g>
</svg>
