<?xml version="1.0" encoding="utf-8"?>
<!-- Generator: Adobe Illustrator 16.2.0, SVG Export Plug-In . SVG Version: 6.00 Build 0)  -->
<!DOCTYPE svg PUBLIC "-//W3C//DTD SVG 1.1//EN" "http://www.w3.org/Graphics/SVG/1.1/DTD/svg11.dtd">
<svg version="1.1" id="Слой_1" xmlns="http://www.w3.org/2000/svg" xmlns:xlink="http://www.w3.org/1999/xlink" x="0px" y="0px"
	 width="28px" height="25px" viewBox="0 0 28 25" enable-background="new 0 0 28 25" xml:space="preserve">
<g>
	<path fill="#C1C1C0" d="M25.096,5.931v12.993c0,1.25-0.438,2.314-1.315,3.191c-0.878,0.877-1.942,1.316-3.192,1.316H7.596
		c-1.25,0-2.314-0.439-3.192-1.316s-1.316-1.941-1.316-3.191V5.931c0-1.232,0.438-2.286,1.316-3.164s1.941-1.325,3.192-1.344h12.992
		c1.232,0,2.296,0.448,3.192,1.344C24.676,3.663,25.114,4.718,25.096,5.931z M20.588,3.439H7.596c-0.69,0-1.279,0.243-1.764,0.728
		C5.346,4.652,5.094,5.241,5.076,5.931v12.993c0,0.689,0.252,1.277,0.756,1.764c0.504,0.484,1.092,0.736,1.764,0.756h12.992
		c0.69,0,1.278-0.252,1.764-0.756s0.729-1.092,0.729-1.764V5.931c0-0.69-0.243-1.278-0.729-1.764S21.278,3.439,20.588,3.439z"/>
</g>
</svg>
