<?xml version="1.0" encoding="utf-8"?>
<!-- Generator: Adobe Illustrator 16.2.0, SVG Export Plug-In . SVG Version: 6.00 Build 0)  -->
<!DOCTYPE svg PUBLIC "-//W3C//DTD SVG 1.1//EN" "http://www.w3.org/Graphics/SVG/1.1/DTD/svg11.dtd">
<svg version="1.1" id="Слой_1" xmlns="http://www.w3.org/2000/svg" xmlns:xlink="http://www.w3.org/1999/xlink" x="0px" y="0px"
	 width="26px" height="26px" viewBox="0 0 26 26" enable-background="new 0 0 26 26" xml:space="preserve">
<rect x="1.153" y="-1.918" fill="none" width="24.847" height="24.963"/>
<g enable-background="new    ">
	<path fill="#C1C1C0" d="M25.232,12.923c0,2.184-0.531,4.19-1.596,6.02c-1.064,1.83-2.52,3.286-4.367,4.368
		c-1.85,1.082-3.855,1.624-6.021,1.624c-2.166,0-4.182-0.542-6.048-1.624s-3.313-2.538-4.34-4.368
		c-1.027-1.829-1.568-3.836-1.624-6.02c-0.056-2.185,0.485-4.19,1.624-6.02c1.138-1.83,2.585-3.285,4.34-4.368
		c1.754-1.083,3.771-1.624,6.048-1.624c2.276,0,4.284,0.542,6.021,1.624c1.734,1.083,3.191,2.539,4.367,4.368
		S25.346,10.738,25.232,12.923z M13.249,4.411c-1.55,0-2.978,0.383-4.284,1.148C7.658,6.324,6.631,7.36,5.885,8.667
		c-0.747,1.307-1.129,2.726-1.148,4.256s0.364,2.949,1.148,4.256c0.784,1.307,1.811,2.343,3.08,3.108
		c1.269,0.766,2.697,1.147,4.284,1.147s3.005-0.382,4.255-1.147c1.252-0.766,2.277-1.802,3.08-3.108s1.186-2.726,1.148-4.256
		s-0.42-2.949-1.148-4.256c-0.727-1.306-1.754-2.342-3.08-3.108C16.18,4.793,14.762,4.411,13.249,4.411z M17.225,12.923
		c0,1.102-0.383,2.044-1.148,2.828c-0.766,0.783-1.707,1.176-2.827,1.176s-2.063-0.393-2.828-1.176
		c-0.766-0.784-1.158-1.727-1.176-2.828s0.374-2.044,1.176-2.828c0.802-0.784,1.745-1.176,2.828-1.176s2.024,0.392,2.827,1.176
		S17.262,11.821,17.225,12.923z"/>
</g>
</svg>
