<?xml version="1.0" encoding="utf-8"?>
<!-- Generator: Adobe Illustrator 16.2.0, SVG Export Plug-In . SVG Version: 6.00 Build 0)  -->
<!DOCTYPE svg PUBLIC "-//W3C//DTD SVG 1.1//EN" "http://www.w3.org/Graphics/SVG/1.1/DTD/svg11.dtd">
<svg version="1.1" id="Слой_1" xmlns="http://www.w3.org/2000/svg" xmlns:xlink="http://www.w3.org/1999/xlink" x="0px" y="0px"
	 width="26px" height="26px" viewBox="0 0 26 26" enable-background="new 0 0 26 26" xml:space="preserve">
<g>
	<path fill="#C1C1C0" d="M25.233,12.922c0,2.183-0.532,4.191-1.596,6.019c-1.064,1.83-2.521,3.287-4.368,4.369
		c-1.849,1.082-3.855,1.623-6.02,1.623c-2.166,0-4.182-0.541-6.048-1.623s-3.313-2.539-4.34-4.369
		c-1.027-1.828-1.568-3.836-1.624-6.019c-0.056-2.184,0.485-4.19,1.624-6.02C4,5.073,5.446,3.617,7.201,2.534
		C8.956,1.452,10.972,0.91,13.25,0.91c2.277,0,4.284,0.542,6.02,1.624c1.735,1.083,3.191,2.539,4.368,4.368
		C24.813,8.732,25.346,10.738,25.233,12.922z M13.25,4.41c-1.55,0-2.978,0.383-4.284,1.148C7.659,6.324,6.632,7.36,5.885,8.666
		c-0.747,1.307-1.129,2.726-1.148,4.256s0.364,2.949,1.148,4.255c0.784,1.307,1.811,2.344,3.08,3.109
		c1.269,0.766,2.697,1.146,4.284,1.146c1.586,0,3.005-0.381,4.255-1.146c1.251-0.766,2.277-1.803,3.08-3.109
		s1.186-2.725,1.148-4.255c-0.038-1.531-0.42-2.949-1.148-4.256c-0.728-1.306-1.755-2.342-3.08-3.108
		C16.18,4.793,14.762,4.41,13.25,4.41z"/>
</g>
</svg>
