<?xml version="1.0" encoding="utf-8"?>
<!-- Generator: Adobe Illustrator 16.2.0, SVG Export Plug-In . SVG Version: 6.00 Build 0)  -->
<!DOCTYPE svg PUBLIC "-//W3C//DTD SVG 1.1//EN" "http://www.w3.org/Graphics/SVG/1.1/DTD/svg11.dtd">
<svg version="1.1" id="Слой_1" xmlns="http://www.w3.org/2000/svg" xmlns:xlink="http://www.w3.org/1999/xlink" x="0px" y="0px"
	 width="20px" height="20px" viewBox="0 0 20 20" enable-background="new 0 0 20 20" xml:space="preserve">
<g>
	<path fill="#C5C5C4" d="M0.77,18.563c0-0.107,0.006-0.246,0.018-0.414C0.8,17.981,0.866,17.7,0.986,17.304
		c0.12-0.396,0.282-0.692,0.486-0.891c0.204-0.198,0.612-0.423,1.224-0.675c0.612-0.252,1.302-0.511,2.07-0.774
		C5.534,14.7,6.092,14.472,6.44,14.28c0.456-0.229,0.81-0.564,1.062-1.009c0.252-0.443,0.372-0.899,0.36-1.367
		c0-0.324-0.192-0.702-0.576-1.134C6.89,10.315,6.572,9.703,6.332,8.934c-0.24-0.768-0.36-1.662-0.36-2.682
		c0-0.768,0.108-1.446,0.324-2.034c0.216-0.588,0.51-1.068,0.882-1.44c0.372-0.372,0.798-0.642,1.278-0.81
		c0.48-0.168,0.99-0.258,1.53-0.27c0.54-0.012,1.049,0.078,1.53,0.27c0.479,0.192,0.906,0.462,1.278,0.81
		c0.371,0.348,0.666,0.828,0.882,1.44C13.892,4.831,14,5.508,14,6.252c0,1.008-0.12,1.902-0.36,2.682
		c-0.24,0.78-0.556,1.393-0.945,1.836c-0.39,0.444-0.585,0.822-0.585,1.134c0,0.468,0.126,0.924,0.378,1.367
		c0.252,0.444,0.606,0.78,1.063,1.009c0.348,0.18,0.905,0.407,1.674,0.684c0.768,0.276,1.452,0.534,2.052,0.774
		s1.005,0.465,1.215,0.675s0.375,0.495,0.495,0.854c0.12,0.36,0.187,0.666,0.198,0.918l0.018,0.378H0.77z"/>
</g>
</svg>
