<?xml version="1.0" encoding="utf-8"?>
<!-- Generator: Adobe Illustrator 16.2.0, SVG Export Plug-In . SVG Version: 6.00 Build 0)  -->
<!DOCTYPE svg PUBLIC "-//W3C//DTD SVG 1.1//EN" "http://www.w3.org/Graphics/SVG/1.1/DTD/svg11.dtd">
<svg version="1.1" id="Слой_1" xmlns="http://www.w3.org/2000/svg" xmlns:xlink="http://www.w3.org/1999/xlink" x="0px" y="0px"
	 width="18px" height="18px" viewBox="0 0 18 18" enable-background="new 0 0 18 18" xml:space="preserve">
<g opacity="0.3">
	<path fill="#FFFFFF" d="M6.541,10.948c-0.408,0.112-0.601,0.243-0.578,0.391c0.022,0.147,0.272,0.222,0.748,0.222h9.555v1.293
		c0,0.227-0.113,0.34-0.341,0.34H4.807c-0.227,0-0.34-0.113-0.34-0.34v-1.293l-1.836-8.5H0.965V1.7c0-0.227,0.113-0.34,0.34-0.34
		h2.652c0.227,0,0.34,0.113,0.34,0.34v1.462h11.969V7.82c0,0.25-0.103,0.397-0.307,0.442L6.541,10.948z M3.515,14.96
		c0-0.453,0.17-0.851,0.51-1.188c0.34-0.34,0.742-0.512,1.207-0.512c0.464,0,0.861,0.172,1.19,0.512s0.493,0.742,0.493,1.207
		c0,0.463-0.165,0.859-0.493,1.188c-0.329,0.329-0.726,0.493-1.19,0.493c-0.465,0-0.867-0.164-1.207-0.493S3.515,15.438,3.515,14.96
		z M12.016,14.96c0-0.453,0.17-0.851,0.51-1.188c0.34-0.34,0.742-0.512,1.207-0.512s0.86,0.172,1.189,0.512
		c0.328,0.34,0.493,0.742,0.493,1.207c0,0.463-0.165,0.859-0.493,1.188c-0.329,0.329-0.727,0.493-1.189,0.493
		c-0.465,0-0.867-0.164-1.207-0.493S12.016,15.438,12.016,14.96z"/>
</g>
</svg>
