<?xml version="1.0" encoding="utf-8"?>
<!-- Generator: Adobe Illustrator 16.2.0, SVG Export Plug-In . SVG Version: 6.00 Build 0)  -->
<!DOCTYPE svg PUBLIC "-//W3C//DTD SVG 1.1//EN" "http://www.w3.org/Graphics/SVG/1.1/DTD/svg11.dtd">
<svg version="1.1" id="Слой_1" xmlns="http://www.w3.org/2000/svg" xmlns:xlink="http://www.w3.org/1999/xlink" x="0px" y="0px"
	 width="20px" height="16px" viewBox="0 0 20 16" enable-background="new 0 0 20 16" xml:space="preserve">
<g>
	<path fill="#FFFFFF" d="M19.602,3.521c0.156,0.432-0.348,1.416-1.512,2.952c-0.156,0.216-0.373,0.504-0.648,0.864
		c-0.527,0.672-0.828,1.109-0.9,1.313c-0.119,0.276-0.078,0.546,0.127,0.81c0.119,0.145,0.396,0.42,0.828,0.828h0.018v0.018
		l0.018,0.018c0.949,0.877,1.59,1.615,1.926,2.215l0.072,0.127c0.023,0.047,0.043,0.137,0.055,0.27c0.012,0.131,0.012,0.246,0,0.342
		s-0.096,0.186-0.252,0.27s-0.354,0.127-0.594,0.127l-2.574,0.053c-0.156,0.025-0.342,0.006-0.559-0.053
		c-0.215-0.061-0.391-0.133-0.521-0.217l-0.199-0.125c-0.203-0.145-0.438-0.361-0.701-0.648c-0.264-0.289-0.492-0.547-0.684-0.775
		c-0.191-0.227-0.396-0.42-0.611-0.574c-0.217-0.156-0.408-0.211-0.576-0.162c-0.014,0-0.037,0.012-0.072,0.035
		c-0.037,0.023-0.098,0.072-0.18,0.145c-0.084,0.072-0.156,0.168-0.217,0.287c-0.061,0.121-0.113,0.295-0.162,0.521
		c-0.049,0.229-0.072,0.492-0.072,0.793c0,0.096-0.012,0.186-0.035,0.27c-0.025,0.084-0.049,0.145-0.072,0.18l-0.037,0.055
		c-0.119,0.133-0.299,0.203-0.54,0.217H9.774c-0.48,0.035-0.966-0.02-1.458-0.162c-0.492-0.145-0.936-0.318-1.332-0.523
		c-0.396-0.203-0.738-0.426-1.026-0.666c-0.288-0.238-0.528-0.432-0.72-0.574l-0.252-0.254l-0.27-0.287
		c-0.12-0.133-0.36-0.438-0.72-0.918c-0.36-0.48-0.714-0.984-1.062-1.512C2.585,8.25,2.178,7.542,1.71,6.653
		c-0.468-0.888-0.906-1.8-1.314-2.736c-0.048-0.108-0.072-0.198-0.072-0.27c0-0.072,0.012-0.126,0.036-0.162l0.036-0.054
		c0.108-0.132,0.3-0.198,0.576-0.198l2.754-0.018C3.81,3.227,3.888,3.251,3.96,3.287c0.072,0.036,0.126,0.06,0.162,0.072
		l0.054,0.036c0.108,0.072,0.186,0.18,0.234,0.324c0.132,0.336,0.288,0.684,0.468,1.044l0.414,0.81l0.162,0.288
		c0.192,0.408,0.378,0.756,0.558,1.044s0.342,0.517,0.486,0.685s0.282,0.3,0.414,0.396c0.132,0.097,0.246,0.145,0.342,0.145
		c0.096,0,0.186-0.019,0.27-0.055l0.054-0.054c0.024-0.023,0.066-0.096,0.126-0.216S7.806,7.529,7.83,7.337l0.09-0.828
		c0.036-0.36,0.036-0.774,0-1.242C7.908,4.991,7.877,4.745,7.83,4.529C7.782,4.313,7.74,4.157,7.704,4.061L7.632,3.953
		c-0.168-0.228-0.45-0.372-0.846-0.432C6.689,3.497,6.708,3.413,6.84,3.269c0.108-0.12,0.234-0.222,0.378-0.306
		c0.348-0.167,1.146-0.246,2.394-0.234c0.552,0.012,1.002,0.054,1.35,0.126c0.144,0.036,0.257,0.084,0.343,0.144
		c0.082,0.06,0.154,0.138,0.215,0.234c0.061,0.096,0.09,0.205,0.09,0.324c0,0.12,0.012,0.276,0.037,0.468
		c0.023,0.192,0.023,0.372,0,0.54c-0.025,0.168-0.037,0.408-0.037,0.72v0.828l-0.018,0.414c-0.012,0.204-0.012,0.366,0,0.486
		l0.035,0.396c0.012,0.145,0.049,0.276,0.109,0.396c0.059,0.12,0.137,0.204,0.234,0.252l0.16,0.036
		c0.061,0.012,0.15-0.024,0.271-0.108c0.119-0.084,0.246-0.198,0.377-0.342c0.133-0.144,0.307-0.372,0.521-0.684
		c0.217-0.313,0.445-0.672,0.686-1.081c0.395-0.696,0.756-1.446,1.08-2.25c0.023-0.072,0.053-0.132,0.09-0.18
		c0.035-0.048,0.072-0.084,0.107-0.108l0.035-0.036l0.199-0.054c0.096-0.024,0.162-0.024,0.197,0l2.881-0.018
		c0.264-0.036,0.479-0.03,0.648,0.018c0.168,0.048,0.27,0.108,0.305,0.18L19.602,3.521z"/>
</g>
</svg>
