<?xml version="1.0" encoding="utf-8"?>
<!-- Generator: Adobe Illustrator 16.2.0, SVG Export Plug-In . SVG Version: 6.00 Build 0)  -->
<!DOCTYPE svg PUBLIC "-//W3C//DTD SVG 1.1//EN" "http://www.w3.org/Graphics/SVG/1.1/DTD/svg11.dtd">
<svg version="1.1" id="Слой_1" xmlns="http://www.w3.org/2000/svg" xmlns:xlink="http://www.w3.org/1999/xlink" x="0px" y="0px"
	 width="18px" height="18px" viewBox="0 0 18 18" enable-background="new 0 0 18 18" xml:space="preserve">
<g>
	<path fill="#C1C6CE" d="M15.935,9.595l-0.544,0.656c-0.053,0.054-0.117,0.086-0.191,0.096h-0.032c-0.075,0-0.139-0.016-0.192-0.048
		L8.799,5.147l-6.176,5.152c-0.075,0.043-0.144,0.064-0.208,0.064c-0.075-0.021-0.139-0.059-0.192-0.112l-0.56-0.656
		C1.62,9.542,1.604,9.473,1.615,9.387c0.01-0.085,0.042-0.149,0.096-0.191l6.416-5.344c0.192-0.16,0.416-0.24,0.672-0.24
		c0.256,0,0.485,0.08,0.688,0.24l2.176,1.824V3.931c0-0.085,0.026-0.155,0.08-0.208c0.053-0.053,0.122-0.08,0.208-0.08h1.712
		c0.085,0,0.154,0.027,0.208,0.08c0.053,0.053,0.08,0.123,0.08,0.208v3.632l1.952,1.632c0.053,0.053,0.085,0.117,0.096,0.191
		C16.01,9.462,15.988,9.531,15.935,9.595z M13.951,10.219v4.272c0,0.16-0.059,0.299-0.176,0.416c-0.118,0.117-0.251,0.17-0.4,0.16
		H9.951v-3.424H7.663v3.424H4.239c-0.16,0-0.293-0.054-0.4-0.16s-0.166-0.245-0.176-0.416v-4.336l5.136-4.224l5.136,4.224
		C13.945,10.166,13.951,10.188,13.951,10.219z"/>
</g>
</svg>
