<?xml version="1.0" encoding="utf-8"?>
<!-- Generator: Adobe Illustrator 16.2.0, SVG Export Plug-In . SVG Version: 6.00 Build 0)  -->
<!DOCTYPE svg PUBLIC "-//W3C//DTD SVG 1.1//EN" "http://www.w3.org/Graphics/SVG/1.1/DTD/svg11.dtd">
<svg version="1.1" id="Слой_1" xmlns="http://www.w3.org/2000/svg" xmlns:xlink="http://www.w3.org/1999/xlink" x="0px" y="0px"
	 width="28px" height="25px" viewBox="0 0 28 25" enable-background="new 0 0 28 25" xml:space="preserve">
<g>
	<path fill="#C1C1C0" d="M23.16,13.867v4.956c0,1.25-0.438,2.314-1.314,3.191c-0.879,0.878-1.943,1.316-3.193,1.316H5.661
		c-1.25,0-2.314-0.438-3.192-1.316c-0.877-0.877-1.316-1.941-1.316-3.191V5.831c0-1.232,0.438-2.286,1.316-3.164
		S4.41,1.342,5.661,1.323h12.992c0.654,0,1.26,0.131,1.82,0.392c0.168,0.075,0.266,0.201,0.295,0.378
		c0.027,0.178-0.023,0.322-0.154,0.434l-0.756,0.784c-0.113,0.094-0.234,0.14-0.365,0.14c-0.037,0-0.084-0.009-0.139-0.028
		c-0.244-0.056-0.477-0.084-0.701-0.084H5.661c-0.69,0-1.279,0.243-1.764,0.728C3.411,4.552,3.159,5.141,3.141,5.831v12.993
		c0,0.69,0.252,1.278,0.756,1.764s1.092,0.737,1.764,0.756h12.992c0.691,0,1.279-0.252,1.764-0.756
		c0.486-0.504,0.729-1.092,0.729-1.764v-3.948c0-0.149,0.047-0.271,0.141-0.364l1.008-0.979c0.111-0.112,0.232-0.169,0.363-0.169
		c0.057,0,0.121,0.02,0.197,0.057C23.059,13.493,23.16,13.643,23.16,13.867z M26.773,6.223L14.033,18.935
		c-0.243,0.262-0.532,0.393-0.868,0.393s-0.635-0.131-0.896-0.393l-6.72-6.72c-0.262-0.242-0.392-0.532-0.392-0.868
		s0.13-0.635,0.392-0.896l1.708-1.736c0.261-0.243,0.56-0.364,0.896-0.364s0.634,0.122,0.896,0.364l4.116,4.116L23.273,2.723
		c0.242-0.242,0.531-0.364,0.867-0.364s0.635,0.122,0.896,0.364l1.736,1.708c0.242,0.262,0.363,0.56,0.363,0.896
		S27.016,5.961,26.773,6.223z"/>
</g>
</svg>
