<?xml version="1.0" encoding="utf-8"?>
<!-- Generator: Adobe Illustrator 16.2.0, SVG Export Plug-In . SVG Version: 6.00 Build 0)  -->
<!DOCTYPE svg PUBLIC "-//W3C//DTD SVG 1.1//EN" "http://www.w3.org/Graphics/SVG/1.1/DTD/svg11.dtd">
<svg version="1.1" id="Слой_1" xmlns="http://www.w3.org/2000/svg" xmlns:xlink="http://www.w3.org/1999/xlink" x="0px" y="0px"
	 width="18px" height="18px" viewBox="0 0 18 18" enable-background="new 0 0 18 18" xml:space="preserve">
<g opacity="0.3">
	<path fill="#FFFFFF" d="M17.143,15.719c0,0.329-0.124,0.612-0.374,0.851c-0.249,0.237-0.538,0.356-0.866,0.356
		c-0.329,0-0.606-0.119-0.833-0.356l-3.247-3.247c-1.134,0.781-2.397,1.173-3.791,1.173c-0.907,0-1.774-0.176-2.601-0.527
		c-0.828-0.351-1.536-0.827-2.125-1.428c-0.589-0.601-1.065-1.309-1.428-2.125S1.338,8.732,1.35,7.814
		c0.011-0.918,0.187-1.78,0.527-2.584s0.816-1.519,1.428-2.142C3.917,2.465,4.625,1.989,5.43,1.66
		c0.804-0.329,1.671-0.504,2.601-0.527C8.96,1.11,9.821,1.286,10.615,1.66c0.793,0.374,1.507,0.85,2.142,1.428
		s1.11,1.292,1.428,2.142s0.493,1.711,0.527,2.584c0,1.394-0.391,2.657-1.173,3.79l3.247,3.247
		C17.024,15.09,17.143,15.379,17.143,15.719z M12.281,7.814c0-1.167-0.42-2.165-1.258-2.993c-0.839-0.827-1.837-1.247-2.992-1.258
		C6.875,3.553,5.872,3.972,5.022,4.822c-0.85,0.85-1.264,1.848-1.241,2.993c0.022,1.145,0.436,2.147,1.241,3.009
		s1.808,1.274,3.009,1.241c1.201-0.034,2.198-0.448,2.992-1.241C11.816,10.03,12.235,9.026,12.281,7.814z"/>
</g>
</svg>
