<?xml version="1.0" encoding="utf-8"?>
<!-- Generator: Adobe Illustrator 16.2.0, SVG Export Plug-In . SVG Version: 6.00 Build 0)  -->
<!DOCTYPE svg PUBLIC "-//W3C//DTD SVG 1.1//EN" "http://www.w3.org/Graphics/SVG/1.1/DTD/svg11.dtd">
<svg version="1.1" id="Слой_1" xmlns="http://www.w3.org/2000/svg" xmlns:xlink="http://www.w3.org/1999/xlink" x="0px" y="0px"
	 width="20px" height="20px" viewBox="0 0 20 20" enable-background="new 0 0 20 20" xml:space="preserve">
<g>
	<path fill="#FFFFFF" d="M17.923,4.285V15.77c0,0.54-0.192,1.001-0.576,1.386c-0.385,0.384-0.853,0.582-1.404,0.594H4.477
		c-0.54,0-1.008-0.198-1.404-0.594c-0.396-0.396-0.588-0.858-0.576-1.386V4.285c0-0.54,0.192-1.002,0.576-1.386
		c0.384-0.384,0.852-0.582,1.404-0.594h11.466c0.54,0,1.008,0.198,1.404,0.594C17.742,3.295,17.935,3.757,17.923,4.285z
		 M16.177,15.355V8.839h-1.351c0.132,0.42,0.198,0.858,0.198,1.314c0,0.852-0.216,1.632-0.647,2.34
		c-0.433,0.708-1.015,1.272-1.746,1.692c-0.732,0.42-1.537,0.63-2.412,0.63c-1.32,0-2.448-0.456-3.384-1.368
		s-1.404-2.01-1.404-3.294c0-0.456,0.065-0.894,0.198-1.314H4.207v6.516c0,0.168,0.06,0.312,0.18,0.432
		c0.12,0.12,0.27,0.18,0.45,0.18h10.728c0.168,0,0.312-0.06,0.432-0.18S16.177,15.523,16.177,15.355z M13.332,9.991
		c0-0.828-0.306-1.536-0.918-2.124c-0.611-0.588-1.344-0.882-2.195-0.882c-0.853,0-1.578,0.294-2.178,0.882S7.134,9.163,7.123,9.991
		c-0.012,0.828,0.294,1.536,0.918,2.124s1.35,0.882,2.178,0.882c0.863,0,1.596-0.294,2.195-0.882
		C13.015,11.527,13.32,10.819,13.332,9.991z M16.177,6.373V4.717c0-0.18-0.066-0.342-0.198-0.486s-0.294-0.209-0.486-0.198h-1.764
		c-0.192,0-0.354,0.066-0.486,0.198c-0.132,0.132-0.197,0.294-0.197,0.486v1.656c0,0.204,0.065,0.372,0.197,0.504
		c0.132,0.132,0.294,0.198,0.486,0.198h1.764c0.192,0,0.354-0.066,0.486-0.198C16.11,6.745,16.177,6.577,16.177,6.373z"/>
</g>
</svg>
